<?xml version="1.0" standalone="no"?>
<!DOCTYPE svg PUBLIC "-//W3C//DTD SVG 20010904//EN"
 "http://www.w3.org/TR/2001/REC-SVG-20010904/DTD/svg10.dtd">
<svg version="1.0" xmlns="http://www.w3.org/2000/svg"
 width="700.000000pt" height="700.000000pt" viewBox="0 0 700.000000 700.000000"
 preserveAspectRatio="xMidYMid meet">
<metadata>
Created by potrace 1.14, written by Peter Selinger 2001-2017
</metadata>
<g transform="translate(0.000000,700.000000) scale(0.100000,-0.100000)"
fill="#000000" stroke="none">
<path d="M2905 5761 c-26 -15 -202 -110 -445 -239 -36 -19 -87 -47 -115 -62
-58 -32 -154 -83 -310 -166 -60 -31 -175 -93 -254 -136 -79 -43 -145 -78 -148
-78 -2 0 -21 -11 -42 -25 -32 -20 -40 -31 -46 -67 -4 -24 -8 -50 -10 -58 -3
-18 -15 -101 -21 -150 -3 -19 -7 -51 -10 -70 -3 -19 -7 -51 -9 -70 -4 -31 -17
-125 -30 -215 -3 -16 -9 -66 -15 -110 -5 -44 -12 -89 -14 -100 -2 -11 -9 -62
-16 -112 -15 -107 -7 -102 -125 -72 -154 39 -155 39 -171 21 -85 -103 -173
-220 -174 -232 0 -8 31 -123 69 -255 39 -132 67 -243 63 -247 -4 -3 -53 -21
-108 -38 -100 -31 -103 -33 -152 -94 -28 -33 -49 -63 -47 -64 2 -2 29 13 60
34 50 33 137 65 215 79 14 2 46 11 72 19 26 7 49 11 52 8 6 -5 10 14 7 31 0 4
3 7 7 7 12 0 48 -28 42 -32 -3 -2 -62 -30 -132 -62 -103 -47 -133 -66 -159
-100 -18 -22 -36 -42 -40 -44 -3 -1 -15 -10 -25 -18 -10 -9 -14 -13 -8 -10 6
3 25 8 43 11 30 5 32 4 26 -16 -7 -21 -6 -21 76 -15 46 4 86 9 90 12 4 2 9 -1
11 -7 2 -7 12 -6 29 3 14 7 85 38 157 68 l133 55 -6 70 -5 70 57 -116 c94
-188 130 -270 149 -339 9 -36 27 -96 39 -135 73 -229 118 -407 106 -414 -6 -4
-65 -23 -129 -40 -115 -33 -118 -34 -175 -93 -32 -33 -56 -62 -53 -66 3 -3 14
2 23 10 23 20 142 78 160 78 12 0 204 44 246 56 9 3 17 12 17 20 0 8 10 14 25
14 27 0 31 -13 16 -52 -6 -15 -35 -38 -82 -62 -65 -34 -150 -93 -214 -148 -11
-9 -29 -24 -40 -33 -19 -14 -16 -15 33 -9 l52 7 0 -32 c0 -35 6 -37 57 -16 19
8 52 17 72 20 31 4 125 41 335 133 l38 17 -6 110 c-4 60 -9 124 -12 140 -6 36
3 46 134 136 90 62 94 63 107 44 41 -59 61 -82 89 -102 61 -43 167 -94 273
-129 60 -20 137 -47 172 -60 35 -13 73 -26 85 -28 60 -12 182 -44 953 -254
l361 -98 243 96 242 96 59 150 c32 82 58 151 58 154 -1 3 -12 -8 -26 -25 l-25
-30 15 37 c16 39 7 96 -21 129 -7 8 -31 64 -54 124 -56 149 -53 146 -78 97
-25 -48 -26 -62 -7 -62 29 0 45 -46 51 -152 3 -58 8 -66 40 -63 14 2 25 2 25
0 0 -2 -60 -35 -132 -73 -171 -90 -419 -167 -508 -158 -129 13 -153 18 -250
53 -229 84 -226 83 -372 83 -76 0 -138 3 -138 8 0 4 -14 23 -32 42 -17 19 -41
46 -52 59 l-21 23 48 -5 c26 -3 53 -9 60 -14 14 -9 11 -8 112 -17 44 -3 91 -8
105 -11 14 -2 70 -11 125 -21 55 -9 108 -18 118 -20 10 -2 54 -8 99 -15 55 -8
85 -17 96 -30 10 -11 30 -19 47 -19 l30 0 -1 73 c-1 63 2 76 24 106 l25 34 34
-67 c18 -36 35 -66 38 -66 2 0 4 10 3 22 0 13 0 35 1 49 1 26 2 27 41 17 l40
-10 -7 -56 c-7 -59 -3 -61 40 -24 15 13 25 14 57 5 44 -11 46 -11 28 9 -49 53
-71 80 -57 70 32 -24 110 -18 94 9 -4 5 7 17 24 27 17 9 32 26 33 36 5 33 26
29 33 -6 8 -35 35 -81 35 -60 0 7 8 30 19 52 l19 39 -26 35 c-29 41 -42 45
-43 14 0 -17 -7 -10 -23 26 l-22 48 -22 -75 -22 -76 -48 6 c-26 3 -55 9 -66
12 -17 7 -17 8 -1 24 16 16 18 16 35 -5 11 -13 19 -19 20 -15 0 9 -59 127 -64
127 -2 0 -19 -25 -37 -55 -18 -30 -40 -55 -49 -55 -9 0 -24 13 -33 30 -21 34
-32 38 -42 13 -6 -16 -8 -16 -19 5 l-12 22 -21 -24 c-25 -28 -62 -25 -64 5 -1
11 -3 24 -4 29 -1 6 -3 16 -4 22 0 7 -12 -4 -26 -24 -16 -23 -31 -35 -42 -33
-10 2 -23 4 -30 4 -6 1 -15 15 -18 33 l-7 32 -13 -25 c-9 -16 -22 -24 -40 -24
-21 -1 -27 5 -32 27 -8 39 -18 42 -41 13 -20 -25 -46 -31 -70 -16 -14 8 24 50
114 124 l31 26 11 -22 c10 -21 11 -21 11 8 1 17 9 42 18 55 l17 24 -34 -24
c-34 -24 -33 -18 3 31 16 22 27 27 65 27 44 0 45 -1 20 -11 -16 -6 -28 -16
-28 -22 0 -18 60 -71 61 -54 2 23 6 63 7 76 4 25 114 63 127 44 3 -6 17 -11
31 -11 14 0 26 -6 29 -12 2 -7 19 -61 37 -121 l34 -107 21 22 c11 13 28 35 37
49 16 25 15 26 -7 36 -25 12 -63 103 -53 128 8 22 145 8 174 -18 12 -11 22
-24 22 -28 0 -4 16 -32 36 -63 l37 -56 24 33 c22 29 22 32 6 35 -27 6 -32 14
-39 60 -6 42 -5 42 25 42 17 0 32 0 34 1 35 10 131 25 157 24 34 -1 37 -4 31
-44 0 -6 -15 -11 -31 -13 l-31 -3 33 -44 32 -45 19 77 c18 72 21 77 52 86 19
5 54 23 79 40 25 18 64 34 89 37 l44 6 -2 -58 c-2 -33 -4 -63 -4 -68 -1 -4
-17 -6 -36 -4 -30 3 -33 2 -20 -12 7 -8 27 -23 43 -32 l30 -18 10 38 c71 257
107 332 170 353 33 11 34 12 28 58 -3 25 -8 56 -10 67 -2 12 -7 39 -10 60 -16
98 -131 531 -145 547 -9 9 -47 13 -196 22 -60 4 -114 9 -118 12 -10 6 -107
-95 -126 -130 -11 -20 -8 -30 21 -80 l32 -57 31 33 c16 19 51 57 76 85 l46 52
71 -1 70 -1 7 -37 c3 -20 9 -47 12 -61 6 -23 4 -23 -32 12 l-38 36 -55 -24
c-30 -13 -56 -24 -57 -24 -3 0 -59 -116 -86 -177 -14 -33 -21 -35 -94 -35 -8
0 -19 0 -25 1 -6 0 -1 24 10 54 l19 52 -26 -30 c-14 -16 -35 -31 -45 -31 -10
-1 -42 -2 -70 -3 -44 -2 -49 -4 -30 -12 13 -5 20 -13 17 -19 -4 -6 -9 -8 -13
-6 -4 2 -25 7 -47 10 -22 4 -53 9 -70 11 -16 3 -43 7 -59 10 -38 6 -42 12 -16
20 21 7 21 9 -16 46 l-38 39 34 1 c19 1 46 3 60 4 14 1 59 6 100 10 41 4 77 9
79 11 5 4 -28 17 -150 59 l-95 33 -62 -21 -61 -22 -24 23 -24 23 -121 -47
-121 -47 -3 -36 -3 -36 -50 2 c-27 1 -66 4 -85 7 -19 3 -38 5 -41 5 -3 1 -54
55 -113 121 -59 65 -115 121 -124 124 -15 4 -79 9 -285 22 l-68 4 -110 109
-110 109 -88 21 c-49 12 -96 21 -105 21 -21 0 -21 7 10 109 52 169 61 188 97
195 50 10 64 13 192 41 94 22 138 38 200 73 44 25 102 56 129 70 l49 25 168
-84 168 -83 138 28 c212 43 197 43 229 -1 16 -21 34 -43 39 -49 6 -6 21 -26
34 -46 19 -27 38 -40 80 -53 31 -10 90 -31 132 -47 l76 -29 23 -105 c13 -58
26 -106 29 -108 3 -2 44 -7 91 -11 47 -3 111 -13 143 -21 32 -7 74 -11 95 -8
20 4 44 7 51 9 48 7 17 61 -268 470 -30 44 -101 147 -157 228 -56 82 -105 148
-108 149 -3 0 -25 4 -48 10 -41 9 -135 27 -358 68 -58 11 -114 22 -125 24 -11
2 -40 7 -65 11 -25 4 -52 9 -60 10 -14 3 -129 25 -315 60 -44 9 -93 18 -110
21 -16 2 -64 11 -105 19 -127 25 -93 37 -445 -155 -27 -15 -86 -46 -130 -70
-44 -23 -102 -55 -130 -70 -56 -31 -236 -126 -335 -178 l-65 -33 -210 -314
c-115 -172 -211 -312 -213 -311 -1 2 28 81 66 177 38 96 95 240 127 321 l57
148 216 146 c120 80 342 229 494 332 153 103 291 195 306 204 27 17 33 17 163
-13 74 -17 150 -35 169 -39 225 -49 632 -143 655 -151 17 -5 25 -5 20 0 -10 9
-69 27 -410 126 -82 24 -245 72 -362 106 l-211 62 -177 -109 c-97 -60 -191
-118 -209 -129 -18 -11 -68 -42 -112 -68 -43 -27 -205 -126 -359 -221 -294
-182 -285 -175 -299 -256 -20 -113 -50 -190 -235 -605 l-31 -70 5 55 c4 30 8
62 10 70 2 8 7 44 11 80 9 82 11 101 18 147 3 21 8 58 11 83 3 25 10 77 16
115 5 39 11 88 14 110 2 22 6 54 9 70 7 45 19 138 20 156 0 14 212 142 560
337 22 13 70 41 106 62 36 21 85 49 110 63 25 14 133 76 240 138 107 62 207
118 221 125 23 12 94 -9 859 -264 l833 -277 54 -140 c30 -77 71 -185 92 -240
22 -55 65 -167 96 -250 31 -82 62 -154 67 -160 8 -7 9 -6 4 3 -7 12 -50 183
-61 240 -16 88 -153 634 -161 641 -8 8 -353 124 -999 336 -71 23 -268 88 -438
144 -169 55 -315 101 -325 101 -9 0 -30 -9 -47 -19z m-316 -1480 c23 -18 24
-22 14 -65 -7 -33 -7 -48 1 -55 6 -5 69 -33 140 -62 70 -29 133 -58 140 -64 6
-7 34 -44 61 -84 28 -39 59 -73 70 -76 27 -6 80 -13 151 -20 32 -4 70 -8 84
-11 14 -2 54 -7 90 -10 61 -5 73 -11 178 -81 62 -42 115 -80 118 -84 3 -6
-183 -242 -246 -312 -13 -15 -174 193 -200 258 -62 156 -66 163 -112 170 -24
4 -52 9 -63 11 -16 3 -142 24 -230 39 -95 15 -93 14 -113 69 -11 28 -27 76
-37 106 -13 41 -32 70 -77 116 -64 66 -64 64 -32 141 16 38 29 40 63 14z
m-445 -89 c39 -62 78 -147 128 -278 39 -104 75 -193 79 -198 4 -5 20 -10 35
-12 16 -1 49 -5 74 -8 25 -3 74 -8 110 -12 36 -3 79 -7 95 -9 17 -2 59 -7 95
-10 36 -4 68 -9 72 -11 14 -9 171 -240 172 -254 1 -10 -30 -25 -94 -47 -122
-41 -147 -42 -154 -5 -8 42 -18 161 -14 168 5 10 -26 22 -72 28 -59 8 -120 17
-145 22 -11 2 -40 6 -65 9 -25 3 -70 10 -100 15 -30 5 -71 12 -90 15 -19 3
-38 9 -42 13 -6 6 -50 124 -156 413 l-38 105 24 72 c13 40 25 72 27 72 2 0 28
-40 59 -88z m-624 -360 c32 -39 49 -66 43 -70 -6 -4 -13 -18 -14 -32 -6 -40
-50 -34 -155 20 l-90 48 -42 -35 c-41 -34 -150 -103 -163 -103 -4 0 -12 21
-18 46 -12 47 -12 47 34 117 l47 69 51 -6 c46 -5 117 -16 211 -32 27 -5 28 -3
24 31 -3 27 -1 32 7 23 6 -7 35 -42 65 -76z m2761 -175 c41 -43 49 -47 75 -41
26 7 28 6 15 -9 -21 -26 -45 -20 -100 23 -77 61 -104 53 -115 -35 -13 -100
-17 -113 -34 -110 -10 2 -21 4 -25 4 -5 1 -6 5 -3 10 3 5 13 42 21 82 8 41 17
84 20 97 4 14 19 29 38 37 37 15 39 14 108 -58z m903 -131 c3 -12 8 -41 12
-62 3 -21 7 -43 7 -48 1 -5 -13 -13 -31 -16 -36 -8 -44 0 -57 57 -5 27 -2 38
22 62 34 37 39 37 47 7z m-1352 -17 c47 -12 92 -17 109 -14 28 6 29 6 29 -34
0 -23 2 -41 5 -41 3 0 31 14 61 32 52 29 56 29 50 10 -4 -11 -9 -31 -11 -43
-6 -28 -15 -34 -89 -56 -40 -12 -65 -27 -79 -45 -11 -15 -23 -25 -27 -23 -4 3
-11 33 -14 68 -9 84 -20 100 -36 51 -11 -32 -14 -35 -24 -22 -10 14 -21 6 -80
-51 -74 -73 -65 -53 -106 -254 -11 -56 -12 -58 -31 -42 -29 27 -51 98 -53 170
-1 74 -11 70 -43 -14 -19 -54 -48 -97 -82 -127 -24 -20 -27 -21 -90 -7 -36 8
-71 21 -77 28 -10 14 -166 95 -180 95 -4 0 5 -14 22 -32 l29 -31 -42 23 -41
23 -66 -27 c-37 -14 -72 -26 -79 -26 -8 0 -25 -12 -38 -28 -13 -15 -53 -61
-89 -102 -36 -41 -71 -79 -77 -83 -21 -13 -15 -24 22 -47 l36 -22 -46 -29
c-25 -16 -57 -32 -71 -35 -18 -5 -31 -19 -41 -43 -8 -20 -26 -47 -39 -61 -21
-22 -24 -36 -26 -113 -1 -54 -6 -86 -12 -84 -6 2 -20 23 -33 47 -29 55 -30
116 -2 198 17 51 31 72 81 116 l59 54 -35 12 c-44 14 -45 25 -7 45 16 8 33 24
36 35 14 45 110 125 309 260 126 84 90 84 314 6 112 -38 137 -44 151 -33 10 6
69 60 132 118 63 58 137 127 164 152 28 26 56 47 63 47 8 0 50 -9 94 -21z
m-2231 -44 c5 -11 38 -105 75 -208 75 -213 76 -181 -13 -277 -43 -45 -51 -47
-58 -14 -2 11 -25 122 -50 249 l-47 229 38 33 c24 20 40 28 42 20 2 -7 8 -21
13 -32z m3230 29 c23 -4 60 -26 109 -67 l74 -60 -45 -40 c-24 -22 -36 -37 -26
-33 10 3 63 15 117 26 91 19 160 18 160 0 0 -11 -69 -102 -89 -117 -47 -36
-420 -139 -540 -149 -36 -3 -73 -7 -81 -10 -8 -3 -84 -8 -170 -11 -111 -3
-173 -10 -220 -24 -77 -23 -80 -25 -106 -66 l-20 -32 -28 24 c-22 19 -32 22
-53 14 -43 -16 -49 -9 -10 15 76 46 68 44 -173 -49 -52 -20 -106 -41 -120 -45
-14 -5 -50 -18 -80 -29 -30 -12 -57 -21 -60 -21 -5 0 52 33 195 110 50 26 110
60 135 74 40 23 56 26 145 26 60 0 109 5 122 13 12 6 77 43 145 82 68 38 130
70 138 72 8 1 67 5 130 8 63 4 131 8 150 10 19 2 42 4 52 4 16 1 82 80 73 89
-2 3 -25 -5 -50 -17 -24 -11 -47 -21 -50 -21 -5 0 4 156 10 190 2 8 4 23 4 33
1 17 7 18 64 13 34 -4 78 -9 98 -12z m-461 -138 c19 -3 45 -5 56 -5 12 -1 25
-9 29 -18 12 -30 17 -73 8 -73 -4 -1 -41 -3 -82 -6 -74 -6 -75 -7 -124 -56
l-50 -50 -36 36 -36 37 77 75 c62 59 82 73 100 69 13 -3 39 -7 58 -9z m-1307
-233 c7 -16 13 -35 12 -43 -1 -8 -3 -21 -3 -28 -2 -11 -12 -12 -44 -6 -24 4
-51 7 -60 6 -29 -1 -23 52 8 77 38 30 71 27 87 -6z m-1937 -14 c-11 -26 -25
-35 -80 -55 -36 -12 -66 -19 -66 -15 0 12 62 64 100 83 52 27 62 24 46 -13z
m897 -154 l89 -14 69 -73 c71 -74 105 -123 91 -131 -4 -3 -43 16 -87 41 -76
44 -85 47 -168 50 -49 2 -93 0 -97 -4 -5 -5 -11 -47 -15 -94 -3 -47 -8 -94
-10 -105 -2 -11 -4 -23 -4 -26 -1 -10 -81 -63 -86 -57 -4 4 -43 185 -51 243
-4 24 6 45 51 108 65 89 62 88 218 62z m1866 -57 c-5 -18 -9 -34 -9 -35 0 -1
-7 0 -15 3 -15 6 -21 45 -8 57 3 4 14 7 24 7 15 0 16 -5 8 -32z m-95 -45 c-8
-50 -16 -60 -24 -33 -14 44 -11 60 9 60 16 0 19 -5 15 -27z m-943 -32 c1 -9 1
-19 0 -23 -1 -7 21 -12 40 -10 4 1 22 -3 40 -9 19 -5 46 -12 62 -14 15 -3 50
-21 77 -41 53 -38 54 -40 51 -138 -2 -56 -34 -122 -65 -133 -29 -9 -92 -12
-104 -4 -6 3 -25 33 -44 65 -31 55 -38 61 -103 88 -38 16 -86 31 -107 34 -68
11 -66 24 24 116 82 84 126 108 129 69z m823 -30 c-7 -47 -23 -56 -19 -11 2
26 0 28 -16 19 -30 -16 -22 4 9 22 15 9 28 15 30 14 1 -1 0 -21 -4 -44z m-48
-179 c30 1 136 -21 271 -55 122 -32 224 -57 227 -57 7 0 2 -37 -7 -46 -3 -4
-28 -1 -54 6 -26 6 -55 13 -63 15 -59 14 -297 78 -305 82 -5 2 -1 -3 9 -11 11
-9 26 -16 33 -16 17 0 16 -10 -2 -34 -17 -22 -18 -21 -39 19 l-16 30 -1 -27
c-3 -58 -7 -63 -43 -47 -23 11 -26 18 -26 68 l-1 56 -24 -30 c-13 -16 -26 -27
-28 -25 -8 8 -15 89 -8 95 3 3 10 -1 16 -9 8 -10 28 -14 61 -14z m-126 -28 c0
-17 -14 -18 -43 -2 l-22 12 25 6 c30 8 40 4 40 -16z m304 -80 l34 -17 -20 -33
c-19 -32 -48 -38 -48 -9 0 7 -3 27 -6 44 -7 36 -6 36 40 15z m118 -48 l42 -16
-24 -25 c-24 -25 -44 -30 -75 -19 -12 5 -13 9 -4 14 9 6 9 16 1 38 -7 22 -7
33 1 41 9 9 13 9 15 -2 2 -8 22 -22 44 -31z m141 -55 c42 -18 48 -24 41 -43
-9 -32 -7 -32 -71 -11 -56 17 -58 19 -61 55 -4 43 -10 43 91 -1z m-2203 -314
c0 -20 -86 -77 -163 -109 -15 -7 -16 -5 -6 14 25 47 59 73 112 84 28 7 53 12
55 13 1 0 2 -1 2 -2z"/>
<path d="M3971 2989 c-23 -9 -23 -10 -6 -29 24 -27 31 -25 44 10 11 33 5 36
-38 19z"/>
<path d="M3027 3091 c-5 -22 0 -31 18 -31 8 0 10 10 7 25 -5 30 -18 33 -25 6z"/>
<path d="M4162 2898 c-19 -9 -22 -17 -17 -37 11 -44 22 -43 31 5 3 15 7 31 10
36 6 10 5 10 -24 -4z"/>
</g>
</svg>
