<?xml version="1.0" standalone="no"?>
<!DOCTYPE svg PUBLIC "-//W3C//DTD SVG 20010904//EN"
 "http://www.w3.org/TR/2001/REC-SVG-20010904/DTD/svg10.dtd">
<svg version="1.0" xmlns="http://www.w3.org/2000/svg"
 width="1479.000000pt" height="1515.000000pt" viewBox="0 0 1479.000000 1515.000000"
 preserveAspectRatio="xMidYMid meet">

<g transform="translate(0.000000,1515.000000) scale(0.100000,-0.100000)"
fill="#000000" stroke="none">
<path d="M6125 12477 c-108 -59 -349 -188 -525 -282 -227 -121 -291 -155 -345
-185 -27 -15 -88 -48 -135 -73 -99 -52 -268 -142 -655 -350 -154 -82 -347
-186 -430 -229 -82 -44 -163 -88 -180 -98 -16 -9 -91 -49 -165 -88 -290 -152
-505 -271 -512 -284 -4 -7 -32 -193 -62 -413 -152 -1108 -250 -1801 -255
-1807 -3 -3 -135 27 -292 67 l-285 72 -209 -261 c-115 -143 -208 -268 -208
-276 1 -8 72 -255 157 -549 86 -294 156 -535 156 -537 0 -1 -106 -37 -235 -79
l-235 -75 -126 -151 c-69 -83 -124 -152 -122 -153 1 -2 68 40 148 92 l145 96
315 82 315 81 -3 42 -3 41 60 -38 c33 -20 57 -40 53 -44 -6 -6 -124 -61 -347
-163 -236 -107 -223 -98 -305 -208 -62 -83 -81 -103 -110 -110 -33 -8 -64 -26
-57 -33 1 -2 43 8 92 20 50 13 92 22 93 21 2 -2 -5 -24 -17 -49 l-20 -46 28 0
c30 0 303 27 361 35 l35 5 -30 -26 -30 -26 40 20 c22 11 58 25 80 32 22 7 65
25 95 40 30 15 159 71 287 125 l232 98 -6 51 c-3 28 -11 96 -18 151 -7 55 -11
102 -9 104 7 8 402 -796 402 -819 0 -14 91 -324 202 -689 111 -365 198 -667
193 -671 -4 -4 -132 -42 -283 -84 l-275 -76 -155 -157 c-127 -127 -147 -151
-110 -131 25 14 106 59 180 101 l136 75 304 71 c421 99 380 86 373 121 l-5 30
56 0 c65 0 65 1 33 -96 l-22 -69 -160 -80 c-148 -74 -176 -93 -378 -253 -119
-95 -217 -175 -217 -176 0 -1 44 6 98 15 143 27 132 31 132 -57 0 -41 4 -73 9
-70 5 3 80 30 167 61 156 54 158 54 124 25 -19 -17 -32 -30 -29 -30 3 0 122
51 265 113 142 62 325 142 406 178 l148 64 0 40 c0 22 -11 161 -25 309 -13
148 -22 273 -19 277 7 11 493 349 502 349 4 0 20 -31 37 -68 33 -75 91 -135
218 -227 151 -108 338 -189 690 -299 108 -34 195 -65 192 -68 -3 -2 20 -10 50
-17 30 -7 58 -18 62 -25 5 -7 49 -21 98 -30 138 -27 216 -47 1315 -346 564
-153 1142 -310 1284 -349 l260 -70 513 204 c283 113 518 205 523 205 14 0 19
11 150 355 67 176 124 323 127 327 2 5 2 8 0 8 -2 0 -32 -36 -66 -80 -34 -44
-64 -80 -67 -80 -2 0 14 36 36 81 l41 81 -27 104 c-21 82 -31 104 -45 104 -12
0 -26 22 -49 83 -150 394 -186 487 -190 487 -3 0 -29 -45 -57 -100 l-53 -100
54 -26 53 -27 16 -71 c31 -132 39 -188 33 -231 -4 -23 -4 -60 0 -83 l6 -41 72
-3 71 -3 -30 -16 c-16 -8 -142 -77 -280 -152 -242 -132 -256 -138 -425 -187
-96 -28 -262 -76 -368 -107 l-193 -56 -212 28 -212 27 -310 110 c-170 60 -335
118 -365 129 -49 17 -84 19 -342 19 l-287 0 -130 153 c-71 83 -128 154 -126
156 2 2 15 -5 28 -16 18 -14 44 -19 103 -21 68 -3 83 -6 105 -28 23 -22 32
-24 136 -24 104 0 432 -49 1193 -178 l105 -18 3 -31 3 -31 75 -4 74 -3 0 157
0 158 54 75 54 75 78 -158 79 -157 3 118 c1 64 5 117 8 117 18 0 174 -44 174
-49 0 -3 -7 -49 -15 -101 -24 -154 -28 -149 66 -84 l80 56 71 -26 c39 -14 73
-24 76 -21 2 2 -20 32 -50 67 -30 35 -76 90 -103 123 l-49 60 50 -47 c49 -47
51 -48 116 -48 87 0 95 4 90 41 -4 25 2 36 27 60 18 16 43 29 56 29 26 0 35
17 35 64 0 36 15 56 42 56 23 0 38 -30 38 -79 0 -21 3 -41 8 -43 4 -1 19 -28
34 -58 23 -47 27 -51 27 -27 1 15 10 44 21 64 11 21 20 44 20 51 0 8 9 25 20
39 11 14 20 35 20 47 0 11 -29 56 -64 98 -67 81 -76 82 -76 15 0 -69 -16 -54
-55 53 -21 60 -40 108 -42 106 -2 -1 -24 -74 -49 -162 -25 -87 -49 -162 -53
-166 -5 -6 -280 37 -288 45 -1 2 15 20 36 41 l38 37 52 -53 52 -53 -47 95
c-25 52 -60 124 -77 159 l-30 63 -21 -35 c-12 -19 -46 -78 -76 -130 -43 -75
-60 -96 -77 -97 -38 0 -52 11 -85 69 -58 102 -54 100 -79 47 -13 -25 -26 -46
-29 -46 -3 0 -16 21 -29 47 l-23 48 -21 -30 c-54 -74 -60 -78 -104 -71 l-41 7
-18 90 c-10 49 -21 89 -25 89 -4 0 -24 -34 -46 -75 -32 -63 -42 -75 -63 -75
-32 1 -109 16 -116 23 -3 3 -14 36 -23 74 l-17 68 -21 -60 -20 -60 -58 2 c-31
1 -59 4 -62 7 -2 2 -13 37 -23 76 -10 39 -21 74 -23 77 -3 2 -24 -24 -48 -59
-23 -35 -43 -64 -45 -66 -4 -6 -154 22 -154 28 0 4 62 63 138 131 197 180 227
205 219 192 -4 -7 3 -34 17 -60 l25 -48 1 75 0 74 48 50 47 49 -47 -32 c-27
-18 -48 -30 -48 -27 0 3 -12 -6 -26 -19 -15 -14 -31 -25 -36 -25 -10 0 8 27
75 118 l39 52 101 0 c109 0 115 -7 27 -35 -30 -10 -59 -20 -64 -23 -4 -2 27
-40 70 -84 l79 -79 5 112 5 111 119 49 c65 27 123 49 127 49 5 0 9 -7 9 -16 0
-9 6 -14 14 -11 7 3 20 -3 28 -12 11 -13 26 -17 56 -14 31 2 44 -1 50 -15 6
-9 42 -123 81 -252 39 -129 74 -241 76 -249 3 -8 37 28 85 92 44 59 80 109 80
112 0 3 -9 5 -19 5 -11 0 -35 10 -54 23 -28 18 -37 32 -47 77 -7 30 -20 73
-30 95 -31 69 -34 94 -15 115 20 22 50 25 87 11 13 -5 73 -10 133 -12 61 -1
117 -6 125 -10 8 -4 65 -86 125 -183 61 -96 112 -175 115 -175 3 0 26 34 52
75 l47 74 -32 1 c-17 1 -40 2 -49 2 -10 0 -18 1 -18 3 0 3 -9 47 -21 99 -11
52 -17 100 -14 105 3 6 43 10 88 11 55 0 112 8 172 25 97 27 172 35 248 27
l47 -6 0 -53 0 -53 -75 -3 -76 -3 76 -104 c41 -57 75 -102 76 -100 0 2 18 78
38 169 l38 164 69 16 c68 15 128 49 226 127 29 24 53 32 125 42 48 7 94 15
100 17 10 3 12 -28 9 -133 -3 -117 -6 -139 -22 -150 -24 -18 -79 -16 -120 3
-63 30 -45 8 57 -70 55 -43 103 -76 105 -73 3 3 47 146 97 319 l92 313 65 94
c64 92 66 94 140 124 41 17 76 32 78 33 2 1 -10 82 -27 181 -17 98 -40 234
-51 303 -12 69 -81 340 -153 603 -115 416 -134 478 -152 482 -11 2 -164 13
-340 25 -176 12 -332 23 -348 25 -24 2 -41 -14 -145 -139 -64 -78 -123 -149
-130 -158 -11 -14 -3 -33 58 -140 40 -68 75 -126 79 -130 4 -4 79 75 166 177
l160 184 155 -2 154 -2 27 -130 c15 -71 27 -131 25 -132 -1 -1 -37 33 -80 76
l-78 79 -122 -50 c-66 -28 -125 -54 -130 -58 -4 -4 -54 -109 -110 -232 l-103
-223 -122 -3 -123 -3 8 23 c4 13 23 72 44 131 20 59 33 104 29 100 -5 -5 -30
-40 -56 -78 l-48 -70 -155 -3 -155 -3 85 -45 c57 -30 75 -43 55 -40 -16 2
-148 22 -292 43 -145 21 -263 40 -263 43 0 3 24 15 53 28 l52 23 -85 78 -85
78 55 7 c30 3 168 15 305 26 138 12 255 22 260 24 6 2 -1 8 -15 14 -41 19
-536 192 -546 192 -6 0 -65 -22 -131 -49 l-120 -48 -54 48 c-30 26 -59 48 -65
49 -5 0 -48 -15 -95 -34 -46 -18 -162 -64 -256 -101 l-173 -67 0 -79 c0 -69
-2 -79 -17 -79 -10 0 -98 7 -196 16 l-178 16 -48 51 c-26 29 -128 140 -226
247 -98 107 -187 205 -199 217 -23 24 -62 28 -401 48 -55 4 -116 8 -135 10
-19 2 -87 7 -150 10 l-115 7 -240 238 -240 238 -230 51 c-126 29 -230 53 -232
54 -4 4 196 610 204 618 5 4 172 43 373 87 l365 81 283 154 283 155 367 -182
368 -183 349 73 c193 41 358 73 369 71 11 -1 71 -74 150 -181 l131 -178 285
-103 285 -102 53 -234 c29 -128 54 -234 55 -236 2 -1 113 -12 247 -23 212 -19
253 -25 313 -49 l69 -28 92 17 c50 10 108 20 128 24 l37 7 -29 83 c-28 83 -84
170 -489 751 -53 76 -333 482 -573 831 l-110 160 -232 43 c-127 24 -436 81
-686 127 -250 47 -540 100 -645 120 -104 19 -235 43 -290 54 -55 10 -297 55
-538 100 l-438 81 -312 -167 c-172 -92 -458 -246 -637 -342 -179 -96 -363
-194 -410 -219 -47 -25 -112 -60 -145 -78 -33 -18 -91 -49 -130 -70 -38 -21
-97 -52 -130 -70 -99 -55 -266 -144 -324 -173 l-54 -27 -460 -690 c-253 -379
-464 -694 -469 -700 -5 -5 -2 8 6 30 9 22 136 348 284 724 l267 683 75 52 c41
29 305 206 585 395 509 342 766 515 1306 879 l286 193 554 -126 c305 -70 810
-185 1123 -256 313 -71 570 -128 572 -126 2 2 -62 23 -143 47 -82 23 -589 172
-1127 331 l-980 289 -50 -32 c-28 -17 -582 -358 -1231 -759 l-1181 -728 -57
-263 c-55 -251 -61 -268 -116 -378 -32 -63 -143 -313 -246 -555 -103 -242
-190 -444 -194 -448 -4 -4 0 54 10 130 132 1005 180 1372 215 1635 l27 197
146 84 c125 72 787 452 2229 1281 l342 198 273 -91 c2747 -909 3334 -1105
3342 -1115 6 -7 160 -407 344 -890 184 -482 335 -875 337 -873 1 1 -15 74 -36
162 -21 88 -61 257 -89 375 -213 901 -342 1435 -348 1441 -7 6 -3812 1259
-3823 1259 -3 0 -41 -20 -85 -43z m-712 -3205 c61 -40 66 -46 61 -70 -4 -15
-15 -62 -26 -104 -11 -43 -17 -81 -14 -86 2 -4 143 -65 313 -135 l308 -128
125 -176 c69 -97 127 -179 130 -183 3 -4 205 -31 450 -60 l445 -52 240 -160
c132 -88 245 -166 252 -172 9 -8 -54 -91 -267 -351 -154 -187 -283 -341 -287
-342 -4 -1 -26 21 -48 49 -22 28 -103 129 -180 224 l-141 174 -97 238 -98 238
-467 79 c-257 43 -468 79 -470 80 -1 1 -38 107 -83 236 l-80 234 -129 130
-130 130 52 132 c32 78 57 129 63 125 6 -4 41 -27 78 -50z m-1004 -120 c41
-64 98 -154 127 -198 44 -68 80 -154 209 -500 86 -231 160 -422 163 -425 4 -4
171 -23 372 -44 201 -20 434 -44 519 -53 l155 -17 153 -220 c84 -121 173 -249
199 -284 25 -35 42 -67 37 -72 -5 -5 -107 -42 -228 -84 -164 -56 -233 -75
-272 -75 -44 0 -53 3 -53 18 0 31 -50 445 -54 449 -4 4 -107 20 -710 108 -209
30 -383 58 -386 62 -3 5 -34 85 -68 178 -34 94 -127 348 -207 565 l-145 395
52 158 c29 86 55 157 58 157 3 0 38 -53 79 -118z m-1358 -789 c56 -71 118
-144 136 -163 40 -41 41 -56 8 -64 -23 -6 -25 -11 -25 -64 l0 -57 -81 2 c-80
2 -81 2 -202 71 -67 38 -148 84 -179 101 l-58 32 -127 -101 c-83 -67 -161
-119 -225 -151 -54 -27 -101 -49 -106 -49 -4 0 -19 46 -33 103 l-25 102 99
150 c58 89 106 151 117 153 10 2 151 -20 314 -47 162 -28 297 -51 299 -51 4 0
-9 97 -18 138 -3 12 -4 22 -1 22 2 0 50 -57 107 -127z m6177 -539 c38 19 43
20 66 3 16 -12 13 -16 -34 -40 -28 -15 -57 -27 -62 -27 -6 0 -63 42 -127 93
-64 52 -121 97 -128 101 -14 7 -113 -39 -113 -53 0 -5 -11 -86 -25 -181 -14
-95 -25 -174 -25 -176 0 -2 -22 -4 -50 -4 -27 0 -50 2 -50 5 0 4 86 413 95
452 4 18 22 27 83 47 l77 25 131 -131 131 -130 31 16z m1832 -287 c17 -88 30
-161 27 -163 -8 -8 -158 -31 -162 -25 -2 4 -14 50 -28 103 l-24 96 75 76 c41
42 76 75 78 74 1 -2 16 -74 34 -161z m-2947 57 l198 -49 42 23 c23 12 45 22
49 22 4 0 9 -45 10 -99 l3 -99 125 73 c69 40 126 70 127 67 2 -4 -7 -49 -20
-101 l-22 -94 -155 -52 -155 -52 -49 -63 c-42 -52 -51 -59 -56 -44 -4 11 -17
93 -30 184 -13 91 -26 168 -29 172 -4 4 -22 -38 -41 -95 -33 -101 -33 -102
-46 -72 -7 17 -13 38 -14 48 0 9 -3 17 -8 17 -4 0 -75 -69 -159 -152 l-151
-153 -49 -257 c-27 -144 -53 -258 -59 -258 -24 0 -75 71 -111 155 -38 89 -38
92 -43 249 l-5 160 -78 -175 c-42 -96 -77 -179 -77 -184 0 -17 -144 -155 -161
-155 -16 0 -209 42 -282 61 -32 8 -37 13 -32 30 6 17 -18 32 -198 119 -112 55
-208 100 -213 100 -5 0 25 -34 66 -76 l75 -76 -92 46 c-51 25 -97 46 -103 46
-5 0 -74 -27 -152 -60 -114 -47 -145 -56 -153 -46 -8 10 -31 -11 -100 -89
-116 -131 -322 -362 -352 -396 l-24 -26 82 -53 81 -54 -55 -28 c-30 -15 -69
-40 -87 -56 -19 -18 -60 -37 -105 -51 l-73 -21 -26 -78 c-22 -65 -35 -87 -81
-132 l-55 -54 0 -193 c0 -106 -3 -193 -6 -193 -25 0 -53 37 -95 125 -49 104
-49 104 -49 209 0 89 4 114 23 158 13 29 34 85 47 123 28 84 93 158 214 243
l79 56 -79 26 c-69 23 -79 30 -82 52 -3 23 4 28 52 48 50 21 57 28 79 79 19
43 51 82 134 163 93 91 155 138 442 334 184 125 339 227 345 227 6 0 172 -57
369 -127 352 -126 359 -127 380 -109 11 10 189 175 395 366 206 192 379 346
386 344 6 -2 100 -26 209 -53z m2045 -19 l193 -24 52 -43 c29 -23 100 -83 160
-132 l107 -90 -47 -49 c-27 -27 -74 -62 -106 -77 -54 -26 -57 -29 -30 -32 15
-2 46 2 68 10 22 7 126 31 232 53 191 39 192 39 263 24 39 -8 73 -15 76 -15
15 0 -8 -36 -93 -147 -92 -120 -100 -127 -167 -158 -110 -51 -302 -109 -667
-200 -317 -80 -341 -85 -445 -85 -74 -1 -137 -7 -199 -22 -76 -18 -136 -22
-385 -27 l-295 -7 -161 -48 c-160 -48 -162 -49 -178 -85 -9 -20 -29 -57 -44
-83 l-28 -47 -52 50 c-29 28 -50 54 -48 58 3 4 -45 -7 -106 -25 -61 -18 -107
-29 -102 -25 5 5 65 41 134 80 69 39 120 71 115 71 -11 0 -192 -68 -784 -294
-167 -64 -306 -116 -309 -116 -15 0 157 101 328 193 102 54 210 113 240 129
30 17 105 57 166 89 l111 59 209 0 209 0 80 46 c44 25 186 106 315 179 l235
133 330 21 c182 12 358 24 392 27 l63 6 75 101 c41 55 73 102 72 104 -2 2 -52
-19 -111 -47 -59 -27 -116 -50 -127 -50 -18 0 -20 5 -15 43 6 40 33 362 38
440 3 45 -14 44 236 12z m-6723 -491 c85 -237 155 -435 155 -440 0 -14 -269
-308 -276 -301 -9 9 -233 1112 -227 1118 5 3 44 34 87 69 l80 62 13 -38 c8
-22 83 -233 168 -470z m5839 181 c92 -14 173 -25 180 -25 14 0 49 -170 37
-181 -3 -4 -82 -11 -176 -18 l-169 -11 -108 -107 -108 -108 -80 80 -81 80 163
157 c90 86 166 157 169 158 3 0 81 -11 173 -25z m-6545 -389 c7 -8 8 -17 3
-19 -4 -3 -13 3 -20 14 -14 22 0 26 17 5z m-470 -143 c-12 -38 -22 -69 -23
-70 -6 -8 -316 -111 -316 -105 0 4 35 42 78 84 62 62 96 86 177 126 55 26 101
45 103 40 2 -4 -6 -38 -19 -75z m4171 59 c0 -17 10 -38 25 -52 21 -20 25 -33
25 -80 0 -44 -5 -61 -19 -75 -19 -16 -23 -16 -82 4 -36 12 -88 21 -121 21
l-58 0 0 52 c0 50 2 54 56 105 54 52 57 53 115 53 58 0 59 0 59 -28z m-2290
-387 l245 -36 74 -77 c255 -268 291 -310 291 -347 0 -19 -5 -35 -11 -35 -6 0
-100 50 -210 110 l-199 110 -182 -2 -183 -3 -22 -215 c-12 -118 -23 -232 -24
-254 -3 -36 -9 -43 -96 -109 -52 -38 -95 -68 -97 -66 -1 2 -31 138 -64 302
l-62 298 127 180 c94 132 133 179 148 179 11 0 130 -16 265 -35z m4120 -62 c0
-5 -13 -43 -28 -86 l-28 -77 -27 28 c-20 21 -27 38 -27 69 0 40 2 42 43 56 48
18 67 20 67 10z m-233 -205 c-12 -54 -24 -98 -28 -98 -3 0 -14 35 -24 78 -10
42 -19 82 -22 87 -4 12 78 45 89 36 3 -3 -4 -50 -15 -103z m-2027 -53 l0 -55
78 0 c61 0 88 -5 130 -25 35 -16 72 -25 105 -25 47 0 54 -3 108 -55 43 -41 65
-55 87 -55 26 0 32 -6 51 -49 18 -42 21 -69 21 -181 0 -161 -15 -206 -99 -292
l-55 -58 -107 0 -107 0 -28 33 c-16 18 -51 79 -78 134 l-49 101 -86 40 c-47
22 -111 48 -141 57 -30 10 -72 26 -92 36 -24 12 -59 19 -96 19 -52 0 -61 3
-87 30 l-29 31 184 184 185 185 52 0 53 0 0 -55z m1790 53 c0 -2 -13 -64 -29
-138 l-29 -135 -1 108 -1 109 -36 -21 c-40 -24 -54 -26 -54 -8 0 6 31 29 68
49 60 33 82 43 82 36z m-255 -454 l6 -36 102 7 102 6 505 -126 c277 -69 506
-128 508 -130 2 -2 -2 -29 -8 -60 -9 -45 -15 -55 -28 -51 -9 3 -123 32 -252
65 -236 60 -360 92 -609 157 -138 36 -179 41 -88 10 28 -10 66 -24 82 -31 17
-8 43 -18 58 -24 l27 -11 -37 -56 -38 -57 -40 84 -40 84 -3 -97 c-1 -54 -4
-98 -6 -98 -12 0 -106 36 -123 48 -22 14 -23 21 -23 135 l0 122 -51 -70 c-28
-39 -54 -71 -58 -73 -4 -1 -14 43 -22 98 -13 86 -13 104 -1 121 19 28 29 24
37 -17z m-142 -93 c-9 -23 -21 -40 -27 -39 -21 6 -116 63 -116 70 0 5 143 16
157 12 2 0 -5 -19 -14 -43z m680 -183 l57 -24 -45 -67 c-24 -36 -41 -68 -37
-70 20 -12 144 -48 148 -44 3 2 -4 42 -16 87 -20 78 -20 83 -4 101 24 26 31
24 39 -12 7 -32 9 -33 122 -73 l62 -22 -62 -62 -62 -61 -140 45 c-77 25 -143
48 -146 52 -4 4 -12 36 -18 72 -6 36 -14 78 -18 94 -4 24 -2 28 11 23 8 -3 18
-1 22 5 5 8 11 6 18 -4 7 -9 37 -27 69 -40z m493 -193 l146 -58 -7 -45 c-9
-58 -14 -72 -29 -72 -7 0 -52 14 -102 30 -49 17 -102 33 -118 36 -16 3 -33 7
-38 10 -4 3 -7 47 -7 97 1 51 3 85 6 76 2 -11 57 -38 149 -74z m-4756 -750
c-43 -44 -87 -71 -212 -135 -87 -45 -158 -77 -158 -73 0 4 34 53 76 108 l75
100 117 26 c167 38 165 38 102 -26z"/>
<path d="M8428 6477 c-31 -12 -59 -25 -62 -28 -3 -3 17 -27 44 -54 27 -27 51
-47 53 -44 2 2 13 29 24 59 11 30 24 63 28 73 10 23 -14 21 -87 -6z"/>
<path d="M6370 6666 c0 -56 0 -56 31 -56 l30 0 -3 53 c-3 48 -5 52 -30 55 -28
3 -28 2 -28 -52z"/>
<path d="M8823 6267 c-24 -11 -43 -26 -43 -32 0 -27 48 -149 54 -135 7 20 46
172 46 182 0 12 -10 9 -57 -15z"/>
</g>
</svg>
